# Schematic grid-fin rocket: +Z nose, +X right, +Y top
mtllib grid-fin-model.mtl
o Rocket_body
usemtl body
v 28.00000 0.00000 -95.00000
v 27.46199 5.46253 -95.00000
v 25.86863 10.71514 -95.00000
v 23.28115 15.55597 -95.00000
v 19.79899 19.79899 -95.00000
v 15.55597 23.28115 -95.00000
v 10.71514 25.86863 -95.00000
v 5.46253 27.46199 -95.00000
v 0.00000 28.00000 -95.00000
v -5.46253 27.46199 -95.00000
v -10.71514 25.86863 -95.00000
v -15.55597 23.28115 -95.00000
v -19.79899 19.79899 -95.00000
v -23.28115 15.55597 -95.00000
v -25.86863 10.71514 -95.00000
v -27.46199 5.46253 -95.00000
v -28.00000 0.00000 -95.00000
v -27.46199 -5.46253 -95.00000
v -25.86863 -10.71514 -95.00000
v -23.28115 -15.55597 -95.00000
v -19.79899 -19.79899 -95.00000
v -15.55597 -23.28115 -95.00000
v -10.71514 -25.86863 -95.00000
v -5.46253 -27.46199 -95.00000
v -0.00000 -28.00000 -95.00000
v 5.46253 -27.46199 -95.00000
v 10.71514 -25.86863 -95.00000
v 15.55597 -23.28115 -95.00000
v 19.79899 -19.79899 -95.00000
v 23.28115 -15.55597 -95.00000
v 25.86863 -10.71514 -95.00000
v 27.46199 -5.46253 -95.00000
v 28.00000 0.00000 78.00000
v 27.46199 5.46253 78.00000
v 25.86863 10.71514 78.00000
v 23.28115 15.55597 78.00000
v 19.79899 19.79899 78.00000
v 15.55597 23.28115 78.00000
v 10.71514 25.86863 78.00000
v 5.46253 27.46199 78.00000
v 0.00000 28.00000 78.00000
v -5.46253 27.46199 78.00000
v -10.71514 25.86863 78.00000
v -15.55597 23.28115 78.00000
v -19.79899 19.79899 78.00000
v -23.28115 15.55597 78.00000
v -25.86863 10.71514 78.00000
v -27.46199 5.46253 78.00000
v -28.00000 0.00000 78.00000
v -27.46199 -5.46253 78.00000
v -25.86863 -10.71514 78.00000
v -23.28115 -15.55597 78.00000
v -19.79899 -19.79899 78.00000
v -15.55597 -23.28115 78.00000
v -10.71514 -25.86863 78.00000
v -5.46253 -27.46199 78.00000
v -0.00000 -28.00000 78.00000
v 5.46253 -27.46199 78.00000
v 10.71514 -25.86863 78.00000
v 15.55597 -23.28115 78.00000
v 19.79899 -19.79899 78.00000
v 23.28115 -15.55597 78.00000
v 25.86863 -10.71514 78.00000
v 27.46199 -5.46253 78.00000
f 1 2 34 33
f 2 3 35 34
f 3 4 36 35
f 4 5 37 36
f 5 6 38 37
f 6 7 39 38
f 7 8 40 39
f 8 9 41 40
f 9 10 42 41
f 10 11 43 42
f 11 12 44 43
f 12 13 45 44
f 13 14 46 45
f 14 15 47 46
f 15 16 48 47
f 16 17 49 48
f 17 18 50 49
f 18 19 51 50
f 19 20 52 51
f 20 21 53 52
f 21 22 54 53
f 22 23 55 54
f 23 24 56 55
f 24 25 57 56
f 25 26 58 57
f 26 27 59 58
f 27 28 60 59
f 28 29 61 60
f 29 30 62 61
f 30 31 63 62
f 31 32 64 63
f 32 1 33 64
f 32 31 30 29 28 27 26 25 24 23 22 21 20 19 18 17 16 15 14 13 12 11 10 9 8 7 6 5 4 3 2 1
f 33 34 35 36 37 38 39 40 41 42 43 44 45 46 47 48 49 50 51 52 53 54 55 56 57 58 59 60 61 62 63 64
o Nose
usemtl nose
v 28.00000 0.00000 78.00000
v 27.46199 5.46253 78.00000
v 25.86863 10.71514 78.00000
v 23.28115 15.55597 78.00000
v 19.79899 19.79899 78.00000
v 15.55597 23.28115 78.00000
v 10.71514 25.86863 78.00000
v 5.46253 27.46199 78.00000
v 0.00000 28.00000 78.00000
v -5.46253 27.46199 78.00000
v -10.71514 25.86863 78.00000
v -15.55597 23.28115 78.00000
v -19.79899 19.79899 78.00000
v -23.28115 15.55597 78.00000
v -25.86863 10.71514 78.00000
v -27.46199 5.46253 78.00000
v -28.00000 0.00000 78.00000
v -27.46199 -5.46253 78.00000
v -25.86863 -10.71514 78.00000
v -23.28115 -15.55597 78.00000
v -19.79899 -19.79899 78.00000
v -15.55597 -23.28115 78.00000
v -10.71514 -25.86863 78.00000
v -5.46253 -27.46199 78.00000
v -0.00000 -28.00000 78.00000
v 5.46253 -27.46199 78.00000
v 10.71514 -25.86863 78.00000
v 15.55597 -23.28115 78.00000
v 19.79899 -19.79899 78.00000
v 23.28115 -15.55597 78.00000
v 25.86863 -10.71514 78.00000
v 27.46199 -5.46253 78.00000
v 0.00000 0.00000 112.00000
f 65 66 97
f 66 67 97
f 67 68 97
f 68 69 97
f 69 70 97
f 70 71 97
f 71 72 97
f 72 73 97
f 73 74 97
f 74 75 97
f 75 76 97
f 76 77 97
f 77 78 97
f 78 79 97
f 79 80 97
f 80 81 97
f 81 82 97
f 82 83 97
f 83 84 97
f 84 85 97
f 85 86 97
f 86 87 97
f 87 88 97
f 88 89 97
f 89 90 97
f 90 91 97
f 91 92 97
f 92 93 97
f 93 94 97
f 94 95 97
f 95 96 97
f 96 65 97
o Camera_on_top_of_nose
usemtl camera
v -10.00000 19.00000 78.00000
v 10.00000 19.00000 78.00000
v 10.00000 31.00000 78.00000
v -10.00000 31.00000 78.00000
v -10.00000 19.00000 98.00000
v 10.00000 19.00000 98.00000
v 10.00000 31.00000 98.00000
v -10.00000 31.00000 98.00000
f 98 101 100 99
f 102 103 104 105
f 98 99 103 102
f 99 100 104 103
f 100 101 105 104
f 101 98 102 105
v -5.00000 31.00000 89.00000
v 5.00000 31.00000 89.00000
v 5.00000 35.00000 89.00000
v -5.00000 35.00000 89.00000
v -5.00000 31.00000 97.00000
v 5.00000 31.00000 97.00000
v 5.00000 35.00000 97.00000
v -5.00000 35.00000 97.00000
f 106 109 108 107
f 110 111 112 113
f 106 107 111 110
f 107 108 112 111
f 108 109 113 112
f 109 106 110 113
o S8_TOP
usemtl top_bottom
v -23.00000 30.00000 -86.00000
v 23.00000 30.00000 -86.00000
v 23.00000 33.00000 -86.00000
v -23.00000 33.00000 -86.00000
v -23.00000 30.00000 -78.00000
v 23.00000 30.00000 -78.00000
v 23.00000 33.00000 -78.00000
v -23.00000 33.00000 -78.00000
f 114 117 116 115
f 118 119 120 121
f 114 115 119 118
f 115 116 120 119
f 116 117 121 120
f 117 114 118 121
v -23.00000 79.00000 -86.00000
v 23.00000 79.00000 -86.00000
v 23.00000 82.00000 -86.00000
v -23.00000 82.00000 -86.00000
v -23.00000 79.00000 -78.00000
v 23.00000 79.00000 -78.00000
v 23.00000 82.00000 -78.00000
v -23.00000 82.00000 -78.00000
f 122 125 124 123
f 126 127 128 129
f 122 123 127 126
f 123 124 128 127
f 124 125 129 128
f 125 122 126 129
v -23.00000 33.00000 -86.00000
v -20.00000 33.00000 -86.00000
v -20.00000 79.00000 -86.00000
v -23.00000 79.00000 -86.00000
v -23.00000 33.00000 -78.00000
v -20.00000 33.00000 -78.00000
v -20.00000 79.00000 -78.00000
v -23.00000 79.00000 -78.00000
f 130 133 132 131
f 134 135 136 137
f 130 131 135 134
f 131 132 136 135
f 132 133 137 136
f 133 130 134 137
v 20.00000 33.00000 -86.00000
v 23.00000 33.00000 -86.00000
v 23.00000 79.00000 -86.00000
v 20.00000 79.00000 -86.00000
v 20.00000 33.00000 -78.00000
v 23.00000 33.00000 -78.00000
v 23.00000 79.00000 -78.00000
v 20.00000 79.00000 -78.00000
f 138 141 140 139
f 142 143 144 145
f 138 139 143 142
f 139 140 144 143
f 140 141 145 144
f 141 138 142 145
v -15.30000 33.00000 -86.00000
v -12.30000 33.00000 -86.00000
v -12.30000 79.00000 -86.00000
v -15.30000 79.00000 -86.00000
v -15.30000 33.00000 -78.00000
v -12.30000 33.00000 -78.00000
v -12.30000 79.00000 -78.00000
v -15.30000 79.00000 -78.00000
f 146 149 148 147
f 150 151 152 153
f 146 147 151 150
f 147 148 152 151
f 148 149 153 152
f 149 146 150 153
v -6.10000 33.00000 -86.00000
v -3.10000 33.00000 -86.00000
v -3.10000 79.00000 -86.00000
v -6.10000 79.00000 -86.00000
v -6.10000 33.00000 -78.00000
v -3.10000 33.00000 -78.00000
v -3.10000 79.00000 -78.00000
v -6.10000 79.00000 -78.00000
f 154 157 156 155
f 158 159 160 161
f 154 155 159 158
f 155 156 160 159
f 156 157 161 160
f 157 154 158 161
v 3.10000 33.00000 -86.00000
v 6.10000 33.00000 -86.00000
v 6.10000 79.00000 -86.00000
v 3.10000 79.00000 -86.00000
v 3.10000 33.00000 -78.00000
v 6.10000 33.00000 -78.00000
v 6.10000 79.00000 -78.00000
v 3.10000 79.00000 -78.00000
f 162 165 164 163
f 166 167 168 169
f 162 163 167 166
f 163 164 168 167
f 164 165 169 168
f 165 162 166 169
v 12.30000 33.00000 -86.00000
v 15.30000 33.00000 -86.00000
v 15.30000 79.00000 -86.00000
v 12.30000 79.00000 -86.00000
v 12.30000 33.00000 -78.00000
v 15.30000 33.00000 -78.00000
v 15.30000 79.00000 -78.00000
v 12.30000 79.00000 -78.00000
f 170 173 172 171
f 174 175 176 177
f 170 171 175 174
f 171 172 176 175
f 172 173 177 176
f 173 170 174 177
v -20.00000 38.90000 -86.00000
v 20.00000 38.90000 -86.00000
v 20.00000 41.90000 -86.00000
v -20.00000 41.90000 -86.00000
v -20.00000 38.90000 -78.00000
v 20.00000 38.90000 -78.00000
v 20.00000 41.90000 -78.00000
v -20.00000 41.90000 -78.00000
f 178 181 180 179
f 182 183 184 185
f 178 179 183 182
f 179 180 184 183
f 180 181 185 184
f 181 178 182 185
v -20.00000 49.30000 -86.00000
v 20.00000 49.30000 -86.00000
v 20.00000 52.30000 -86.00000
v -20.00000 52.30000 -86.00000
v -20.00000 49.30000 -78.00000
v 20.00000 49.30000 -78.00000
v 20.00000 52.30000 -78.00000
v -20.00000 52.30000 -78.00000
f 186 189 188 187
f 190 191 192 193
f 186 187 191 190
f 187 188 192 191
f 188 189 193 192
f 189 186 190 193
v -20.00000 59.70000 -86.00000
v 20.00000 59.70000 -86.00000
v 20.00000 62.70000 -86.00000
v -20.00000 62.70000 -86.00000
v -20.00000 59.70000 -78.00000
v 20.00000 59.70000 -78.00000
v 20.00000 62.70000 -78.00000
v -20.00000 62.70000 -78.00000
f 194 197 196 195
f 198 199 200 201
f 194 195 199 198
f 195 196 200 199
f 196 197 201 200
f 197 194 198 201
v -20.00000 70.10000 -86.00000
v 20.00000 70.10000 -86.00000
v 20.00000 73.10000 -86.00000
v -20.00000 73.10000 -86.00000
v -20.00000 70.10000 -78.00000
v 20.00000 70.10000 -78.00000
v 20.00000 73.10000 -78.00000
v -20.00000 73.10000 -78.00000
f 202 205 204 203
f 206 207 208 209
f 202 203 207 206
f 203 204 208 207
f 204 205 209 208
f 205 202 206 209
o S9_BOTTOM
usemtl top_bottom
v -23.00000 -82.00000 -86.00000
v 23.00000 -82.00000 -86.00000
v 23.00000 -79.00000 -86.00000
v -23.00000 -79.00000 -86.00000
v -23.00000 -82.00000 -78.00000
v 23.00000 -82.00000 -78.00000
v 23.00000 -79.00000 -78.00000
v -23.00000 -79.00000 -78.00000
f 210 213 212 211
f 214 215 216 217
f 210 211 215 214
f 211 212 216 215
f 212 213 217 216
f 213 210 214 217
v -23.00000 -33.00000 -86.00000
v 23.00000 -33.00000 -86.00000
v 23.00000 -30.00000 -86.00000
v -23.00000 -30.00000 -86.00000
v -23.00000 -33.00000 -78.00000
v 23.00000 -33.00000 -78.00000
v 23.00000 -30.00000 -78.00000
v -23.00000 -30.00000 -78.00000
f 218 221 220 219
f 222 223 224 225
f 218 219 223 222
f 219 220 224 223
f 220 221 225 224
f 221 218 222 225
v -23.00000 -79.00000 -86.00000
v -20.00000 -79.00000 -86.00000
v -20.00000 -33.00000 -86.00000
v -23.00000 -33.00000 -86.00000
v -23.00000 -79.00000 -78.00000
v -20.00000 -79.00000 -78.00000
v -20.00000 -33.00000 -78.00000
v -23.00000 -33.00000 -78.00000
f 226 229 228 227
f 230 231 232 233
f 226 227 231 230
f 227 228 232 231
f 228 229 233 232
f 229 226 230 233
v 20.00000 -79.00000 -86.00000
v 23.00000 -79.00000 -86.00000
v 23.00000 -33.00000 -86.00000
v 20.00000 -33.00000 -86.00000
v 20.00000 -79.00000 -78.00000
v 23.00000 -79.00000 -78.00000
v 23.00000 -33.00000 -78.00000
v 20.00000 -33.00000 -78.00000
f 234 237 236 235
f 238 239 240 241
f 234 235 239 238
f 235 236 240 239
f 236 237 241 240
f 237 234 238 241
v -15.30000 -79.00000 -86.00000
v -12.30000 -79.00000 -86.00000
v -12.30000 -33.00000 -86.00000
v -15.30000 -33.00000 -86.00000
v -15.30000 -79.00000 -78.00000
v -12.30000 -79.00000 -78.00000
v -12.30000 -33.00000 -78.00000
v -15.30000 -33.00000 -78.00000
f 242 245 244 243
f 246 247 248 249
f 242 243 247 246
f 243 244 248 247
f 244 245 249 248
f 245 242 246 249
v -6.10000 -79.00000 -86.00000
v -3.10000 -79.00000 -86.00000
v -3.10000 -33.00000 -86.00000
v -6.10000 -33.00000 -86.00000
v -6.10000 -79.00000 -78.00000
v -3.10000 -79.00000 -78.00000
v -3.10000 -33.00000 -78.00000
v -6.10000 -33.00000 -78.00000
f 250 253 252 251
f 254 255 256 257
f 250 251 255 254
f 251 252 256 255
f 252 253 257 256
f 253 250 254 257
v 3.10000 -79.00000 -86.00000
v 6.10000 -79.00000 -86.00000
v 6.10000 -33.00000 -86.00000
v 3.10000 -33.00000 -86.00000
v 3.10000 -79.00000 -78.00000
v 6.10000 -79.00000 -78.00000
v 6.10000 -33.00000 -78.00000
v 3.10000 -33.00000 -78.00000
f 258 261 260 259
f 262 263 264 265
f 258 259 263 262
f 259 260 264 263
f 260 261 265 264
f 261 258 262 265
v 12.30000 -79.00000 -86.00000
v 15.30000 -79.00000 -86.00000
v 15.30000 -33.00000 -86.00000
v 12.30000 -33.00000 -86.00000
v 12.30000 -79.00000 -78.00000
v 15.30000 -79.00000 -78.00000
v 15.30000 -33.00000 -78.00000
v 12.30000 -33.00000 -78.00000
f 266 269 268 267
f 270 271 272 273
f 266 267 271 270
f 267 268 272 271
f 268 269 273 272
f 269 266 270 273
v -20.00000 -73.10000 -86.00000
v 20.00000 -73.10000 -86.00000
v 20.00000 -70.10000 -86.00000
v -20.00000 -70.10000 -86.00000
v -20.00000 -73.10000 -78.00000
v 20.00000 -73.10000 -78.00000
v 20.00000 -70.10000 -78.00000
v -20.00000 -70.10000 -78.00000
f 274 277 276 275
f 278 279 280 281
f 274 275 279 278
f 275 276 280 279
f 276 277 281 280
f 277 274 278 281
v -20.00000 -62.70000 -86.00000
v 20.00000 -62.70000 -86.00000
v 20.00000 -59.70000 -86.00000
v -20.00000 -59.70000 -86.00000
v -20.00000 -62.70000 -78.00000
v 20.00000 -62.70000 -78.00000
v 20.00000 -59.70000 -78.00000
v -20.00000 -59.70000 -78.00000
f 282 285 284 283
f 286 287 288 289
f 282 283 287 286
f 283 284 288 287
f 284 285 289 288
f 285 282 286 289
v -20.00000 -52.30000 -86.00000
v 20.00000 -52.30000 -86.00000
v 20.00000 -49.30000 -86.00000
v -20.00000 -49.30000 -86.00000
v -20.00000 -52.30000 -78.00000
v 20.00000 -52.30000 -78.00000
v 20.00000 -49.30000 -78.00000
v -20.00000 -49.30000 -78.00000
f 290 293 292 291
f 294 295 296 297
f 290 291 295 294
f 291 292 296 295
f 292 293 297 296
f 293 290 294 297
v -20.00000 -41.90000 -86.00000
v 20.00000 -41.90000 -86.00000
v 20.00000 -38.90000 -86.00000
v -20.00000 -38.90000 -86.00000
v -20.00000 -41.90000 -78.00000
v 20.00000 -41.90000 -78.00000
v 20.00000 -38.90000 -78.00000
v -20.00000 -38.90000 -78.00000
f 298 301 300 299
f 302 303 304 305
f 298 299 303 302
f 299 300 304 303
f 300 301 305 304
f 301 298 302 305
o S7_RIGHT
usemtl left_right
v 30.00000 -23.00000 -86.00000
v 82.00000 -23.00000 -86.00000
v 82.00000 -20.00000 -86.00000
v 30.00000 -20.00000 -86.00000
v 30.00000 -23.00000 -78.00000
v 82.00000 -23.00000 -78.00000
v 82.00000 -20.00000 -78.00000
v 30.00000 -20.00000 -78.00000
f 306 309 308 307
f 310 311 312 313
f 306 307 311 310
f 307 308 312 311
f 308 309 313 312
f 309 306 310 313
v 30.00000 20.00000 -86.00000
v 82.00000 20.00000 -86.00000
v 82.00000 23.00000 -86.00000
v 30.00000 23.00000 -86.00000
v 30.00000 20.00000 -78.00000
v 82.00000 20.00000 -78.00000
v 82.00000 23.00000 -78.00000
v 30.00000 23.00000 -78.00000
f 314 317 316 315
f 318 319 320 321
f 314 315 319 318
f 315 316 320 319
f 316 317 321 320
f 317 314 318 321
v 30.00000 -20.00000 -86.00000
v 33.00000 -20.00000 -86.00000
v 33.00000 20.00000 -86.00000
v 30.00000 20.00000 -86.00000
v 30.00000 -20.00000 -78.00000
v 33.00000 -20.00000 -78.00000
v 33.00000 20.00000 -78.00000
v 30.00000 20.00000 -78.00000
f 322 325 324 323
f 326 327 328 329
f 322 323 327 326
f 323 324 328 327
f 324 325 329 328
f 325 322 326 329
v 79.00000 -20.00000 -86.00000
v 82.00000 -20.00000 -86.00000
v 82.00000 20.00000 -86.00000
v 79.00000 20.00000 -86.00000
v 79.00000 -20.00000 -78.00000
v 82.00000 -20.00000 -78.00000
v 82.00000 20.00000 -78.00000
v 79.00000 20.00000 -78.00000
f 330 333 332 331
f 334 335 336 337
f 330 331 335 334
f 331 332 336 335
f 332 333 337 336
f 333 330 334 337
v 38.90000 -20.00000 -86.00000
v 41.90000 -20.00000 -86.00000
v 41.90000 20.00000 -86.00000
v 38.90000 20.00000 -86.00000
v 38.90000 -20.00000 -78.00000
v 41.90000 -20.00000 -78.00000
v 41.90000 20.00000 -78.00000
v 38.90000 20.00000 -78.00000
f 338 341 340 339
f 342 343 344 345
f 338 339 343 342
f 339 340 344 343
f 340 341 345 344
f 341 338 342 345
v 49.30000 -20.00000 -86.00000
v 52.30000 -20.00000 -86.00000
v 52.30000 20.00000 -86.00000
v 49.30000 20.00000 -86.00000
v 49.30000 -20.00000 -78.00000
v 52.30000 -20.00000 -78.00000
v 52.30000 20.00000 -78.00000
v 49.30000 20.00000 -78.00000
f 346 349 348 347
f 350 351 352 353
f 346 347 351 350
f 347 348 352 351
f 348 349 353 352
f 349 346 350 353
v 59.70000 -20.00000 -86.00000
v 62.70000 -20.00000 -86.00000
v 62.70000 20.00000 -86.00000
v 59.70000 20.00000 -86.00000
v 59.70000 -20.00000 -78.00000
v 62.70000 -20.00000 -78.00000
v 62.70000 20.00000 -78.00000
v 59.70000 20.00000 -78.00000
f 354 357 356 355
f 358 359 360 361
f 354 355 359 358
f 355 356 360 359
f 356 357 361 360
f 357 354 358 361
v 70.10000 -20.00000 -86.00000
v 73.10000 -20.00000 -86.00000
v 73.10000 20.00000 -86.00000
v 70.10000 20.00000 -86.00000
v 70.10000 -20.00000 -78.00000
v 73.10000 -20.00000 -78.00000
v 73.10000 20.00000 -78.00000
v 70.10000 20.00000 -78.00000
f 362 365 364 363
f 366 367 368 369
f 362 363 367 366
f 363 364 368 367
f 364 365 369 368
f 365 362 366 369
v 33.00000 -15.30000 -86.00000
v 79.00000 -15.30000 -86.00000
v 79.00000 -12.30000 -86.00000
v 33.00000 -12.30000 -86.00000
v 33.00000 -15.30000 -78.00000
v 79.00000 -15.30000 -78.00000
v 79.00000 -12.30000 -78.00000
v 33.00000 -12.30000 -78.00000
f 370 373 372 371
f 374 375 376 377
f 370 371 375 374
f 371 372 376 375
f 372 373 377 376
f 373 370 374 377
v 33.00000 -6.10000 -86.00000
v 79.00000 -6.10000 -86.00000
v 79.00000 -3.10000 -86.00000
v 33.00000 -3.10000 -86.00000
v 33.00000 -6.10000 -78.00000
v 79.00000 -6.10000 -78.00000
v 79.00000 -3.10000 -78.00000
v 33.00000 -3.10000 -78.00000
f 378 381 380 379
f 382 383 384 385
f 378 379 383 382
f 379 380 384 383
f 380 381 385 384
f 381 378 382 385
v 33.00000 3.10000 -86.00000
v 79.00000 3.10000 -86.00000
v 79.00000 6.10000 -86.00000
v 33.00000 6.10000 -86.00000
v 33.00000 3.10000 -78.00000
v 79.00000 3.10000 -78.00000
v 79.00000 6.10000 -78.00000
v 33.00000 6.10000 -78.00000
f 386 389 388 387
f 390 391 392 393
f 386 387 391 390
f 387 388 392 391
f 388 389 393 392
f 389 386 390 393
v 33.00000 12.30000 -86.00000
v 79.00000 12.30000 -86.00000
v 79.00000 15.30000 -86.00000
v 33.00000 15.30000 -86.00000
v 33.00000 12.30000 -78.00000
v 79.00000 12.30000 -78.00000
v 79.00000 15.30000 -78.00000
v 33.00000 15.30000 -78.00000
f 394 397 396 395
f 398 399 400 401
f 394 395 399 398
f 395 396 400 399
f 396 397 401 400
f 397 394 398 401
o S10_LEFT
usemtl left_right
v -82.00000 -23.00000 -86.00000
v -30.00000 -23.00000 -86.00000
v -30.00000 -20.00000 -86.00000
v -82.00000 -20.00000 -86.00000
v -82.00000 -23.00000 -78.00000
v -30.00000 -23.00000 -78.00000
v -30.00000 -20.00000 -78.00000
v -82.00000 -20.00000 -78.00000
f 402 405 404 403
f 406 407 408 409
f 402 403 407 406
f 403 404 408 407
f 404 405 409 408
f 405 402 406 409
v -82.00000 20.00000 -86.00000
v -30.00000 20.00000 -86.00000
v -30.00000 23.00000 -86.00000
v -82.00000 23.00000 -86.00000
v -82.00000 20.00000 -78.00000
v -30.00000 20.00000 -78.00000
v -30.00000 23.00000 -78.00000
v -82.00000 23.00000 -78.00000
f 410 413 412 411
f 414 415 416 417
f 410 411 415 414
f 411 412 416 415
f 412 413 417 416
f 413 410 414 417
v -82.00000 -20.00000 -86.00000
v -79.00000 -20.00000 -86.00000
v -79.00000 20.00000 -86.00000
v -82.00000 20.00000 -86.00000
v -82.00000 -20.00000 -78.00000
v -79.00000 -20.00000 -78.00000
v -79.00000 20.00000 -78.00000
v -82.00000 20.00000 -78.00000
f 418 421 420 419
f 422 423 424 425
f 418 419 423 422
f 419 420 424 423
f 420 421 425 424
f 421 418 422 425
v -33.00000 -20.00000 -86.00000
v -30.00000 -20.00000 -86.00000
v -30.00000 20.00000 -86.00000
v -33.00000 20.00000 -86.00000
v -33.00000 -20.00000 -78.00000
v -30.00000 -20.00000 -78.00000
v -30.00000 20.00000 -78.00000
v -33.00000 20.00000 -78.00000
f 426 429 428 427
f 430 431 432 433
f 426 427 431 430
f 427 428 432 431
f 428 429 433 432
f 429 426 430 433
v -73.10000 -20.00000 -86.00000
v -70.10000 -20.00000 -86.00000
v -70.10000 20.00000 -86.00000
v -73.10000 20.00000 -86.00000
v -73.10000 -20.00000 -78.00000
v -70.10000 -20.00000 -78.00000
v -70.10000 20.00000 -78.00000
v -73.10000 20.00000 -78.00000
f 434 437 436 435
f 438 439 440 441
f 434 435 439 438
f 435 436 440 439
f 436 437 441 440
f 437 434 438 441
v -62.70000 -20.00000 -86.00000
v -59.70000 -20.00000 -86.00000
v -59.70000 20.00000 -86.00000
v -62.70000 20.00000 -86.00000
v -62.70000 -20.00000 -78.00000
v -59.70000 -20.00000 -78.00000
v -59.70000 20.00000 -78.00000
v -62.70000 20.00000 -78.00000
f 442 445 444 443
f 446 447 448 449
f 442 443 447 446
f 443 444 448 447
f 444 445 449 448
f 445 442 446 449
v -52.30000 -20.00000 -86.00000
v -49.30000 -20.00000 -86.00000
v -49.30000 20.00000 -86.00000
v -52.30000 20.00000 -86.00000
v -52.30000 -20.00000 -78.00000
v -49.30000 -20.00000 -78.00000
v -49.30000 20.00000 -78.00000
v -52.30000 20.00000 -78.00000
f 450 453 452 451
f 454 455 456 457
f 450 451 455 454
f 451 452 456 455
f 452 453 457 456
f 453 450 454 457
v -41.90000 -20.00000 -86.00000
v -38.90000 -20.00000 -86.00000
v -38.90000 20.00000 -86.00000
v -41.90000 20.00000 -86.00000
v -41.90000 -20.00000 -78.00000
v -38.90000 -20.00000 -78.00000
v -38.90000 20.00000 -78.00000
v -41.90000 20.00000 -78.00000
f 458 461 460 459
f 462 463 464 465
f 458 459 463 462
f 459 460 464 463
f 460 461 465 464
f 461 458 462 465
v -79.00000 -15.30000 -86.00000
v -33.00000 -15.30000 -86.00000
v -33.00000 -12.30000 -86.00000
v -79.00000 -12.30000 -86.00000
v -79.00000 -15.30000 -78.00000
v -33.00000 -15.30000 -78.00000
v -33.00000 -12.30000 -78.00000
v -79.00000 -12.30000 -78.00000
f 466 469 468 467
f 470 471 472 473
f 466 467 471 470
f 467 468 472 471
f 468 469 473 472
f 469 466 470 473
v -79.00000 -6.10000 -86.00000
v -33.00000 -6.10000 -86.00000
v -33.00000 -3.10000 -86.00000
v -79.00000 -3.10000 -86.00000
v -79.00000 -6.10000 -78.00000
v -33.00000 -6.10000 -78.00000
v -33.00000 -3.10000 -78.00000
v -79.00000 -3.10000 -78.00000
f 474 477 476 475
f 478 479 480 481
f 474 475 479 478
f 475 476 480 479
f 476 477 481 480
f 477 474 478 481
v -79.00000 3.10000 -86.00000
v -33.00000 3.10000 -86.00000
v -33.00000 6.10000 -86.00000
v -79.00000 6.10000 -86.00000
v -79.00000 3.10000 -78.00000
v -33.00000 3.10000 -78.00000
v -33.00000 6.10000 -78.00000
v -79.00000 6.10000 -78.00000
f 482 485 484 483
f 486 487 488 489
f 482 483 487 486
f 483 484 488 487
f 484 485 489 488
f 485 482 486 489
v -79.00000 12.30000 -86.00000
v -33.00000 12.30000 -86.00000
v -33.00000 15.30000 -86.00000
v -79.00000 15.30000 -86.00000
v -79.00000 12.30000 -78.00000
v -33.00000 12.30000 -78.00000
v -33.00000 15.30000 -78.00000
v -79.00000 15.30000 -78.00000
f 490 493 492 491
f 494 495 496 497
f 490 491 495 494
f 491 492 496 495
f 492 493 497 496
f 493 490 494 497
